<?xml version="1.0" standalone="no"?>
<!DOCTYPE svg PUBLIC "-//W3C//DTD SVG 20010904//EN"
 "http://www.w3.org/TR/2001/REC-SVG-20010904/DTD/svg10.dtd">
<svg version="1.0" xmlns="http://www.w3.org/2000/svg"
 width="466.000000pt" height="466.000000pt" viewBox="0 0 466.000000 466.000000"
 preserveAspectRatio="xMidYMid meet">
<metadata>
Created by potrace 1.14, written by Peter Selinger 2001-2017
</metadata>
<g transform="translate(0.000000,466.000000) scale(0.100000,-0.100000)"
fill="#000000" stroke="none">
<path d="M10 2330 l0 -2330 2320 0 2320 0 0 2330 0 2330 -2320 0 -2320 0 0
-2330z m2418 2048 c99 -63 511 -333 592 -388 106 -73 646 -430 653 -432 4 -2
7 -265 8 -586 l0 -582 95 0 c93 0 95 0 105 -27 5 -15 9 -45 7 -67 l-3 -41
-102 -3 -102 -3 -1 -491 c0 -457 -1 -494 -17 -510 -19 -18 -454 -307 -728
-483 -85 -55 -253 -164 -373 -242 -119 -79 -223 -143 -229 -143 -13 0 -75 38
-253 155 -52 34 -160 104 -240 156 -279 180 -716 468 -781 515 l-67 48 -6 250
c-3 138 -4 364 -3 501 l2 250 -110 0 -110 0 0 65 0 65 108 3 107 3 1 92 c0 51
2 281 5 512 2 231 4 452 4 491 l0 72 348 229 c191 127 421 279 512 338 91 60
235 155 320 211 85 57 156 103 158 104 1 0 46 -28 100 -62z m-654 -31 c12 -9
17 -23 14 -42 -2 -25 -16 -39 -83 -82 -262 -169 -618 -407 -730 -486 l-130
-93 -10 -60 c-6 -39 -22 -79 -44 -112 -18 -29 -31 -59 -27 -67 6 -18 47 -20
64 -3 6 6 13 10 14 7 2 -2 2 -178 0 -391 l-3 -387 -37 22 c-35 21 -48 22 -290
22 l-252 0 0 29 c0 55 51 279 90 396 91 273 228 491 455 728 171 178 346 305
570 414 216 104 351 140 399 105z m1321 -27 c495 -188 913 -555 1120 -985 89
-182 184 -505 185 -625 l0 -35 -252 0 -253 0 -56 -27 c-31 -16 -58 -28 -60
-28 -2 0 -5 176 -6 390 -1 215 2 390 6 390 14 0 87 -119 126 -205 20 -44 40
-87 44 -95 4 -8 20 -58 36 -110 16 -52 33 -101 38 -107 13 -17 78 -16 102 0
23 18 17 63 -26 189 -52 154 -104 253 -200 380 -53 72 -63 95 -71 167 -2 19
-33 45 -133 113 -255 174 -720 480 -765 503 -51 25 -70 45 -70 71 0 67 83 72
235 14z m997 -299 c19 -35 73 -71 106 -71 33 0 27 -14 -18 -39 -43 -24 -72
-59 -87 -105 -14 -43 -29 -42 -52 2 -21 41 -65 75 -113 87 -29 7 -39 25 -15
25 8 0 35 14 60 31 37 24 51 41 64 80 19 53 20 53 55 -10z m-3464 5 c18 -40
75 -96 99 -96 5 0 17 -6 27 -13 17 -12 14 -15 -30 -32 -58 -21 -87 -46 -109
-91 -19 -41 -31 -43 -38 -6 -10 46 -45 91 -94 122 -39 25 -43 30 -27 36 79 27
104 44 124 83 11 23 22 41 25 41 2 0 13 -20 23 -44z m56 -1502 c45 -7 47 -8
42 -33 -4 -14 -9 -90 -13 -168 l-6 -141 -26 -4 c-14 -2 -115 -3 -223 -3 -185
0 -198 1 -212 20 -12 16 -15 50 -16 156 0 141 6 163 45 172 31 7 357 8 409 1z
m3685 0 c51 -10 61 -42 57 -180 -1 -66 -8 -129 -14 -141 -16 -29 -71 -35 -295
-31 l-178 3 -3 150 c-2 83 -7 162 -11 178 l-7 27 210 0 c115 0 224 -3 241 -6z
m-490 -503 l53 -36 237 0 237 0 -8 -55 c-38 -243 -156 -541 -292 -739 -154
-225 -346 -411 -423 -411 -52 0 -124 91 -109 138 4 10 48 57 100 105 165 152
290 325 381 525 55 123 85 226 69 242 -5 5 -28 12 -50 16 -52 8 -74 -11 -99
-87 -39 -121 -152 -318 -182 -319 -10 0 -13 72 -15 303 -4 370 -4 370 25 361
12 -3 46 -23 76 -43z m-3039 -288 l0 -328 -40 65 c-54 88 -77 137 -110 233
-31 90 -53 111 -105 101 -64 -13 -67 -30 -29 -142 81 -235 246 -483 435 -652
98 -87 99 -88 99 -117 0 -35 -19 -67 -54 -91 -38 -26 -75 -28 -119 -6 -40 21
-193 169 -257 249 -48 60 -150 210 -150 220 0 3 -12 23 -26 44 -77 117 -189
442 -219 636 l-6 40 230 0 229 0 54 37 c29 21 56 38 61 38 4 0 7 -147 7 -327z
m2640 -953 c35 -25 56 -80 41 -109 -15 -27 -51 -51 -78 -51 -84 0 -123 92 -64
151 35 34 62 37 101 9z m-2190 0 c30 -16 42 -66 26 -105 -26 -62 -89 -74 -137
-26 -44 45 -38 100 16 129 25 14 71 15 95 2z m1883 -247 c38 -36 57 -81 57
-138 0 -50 -10 -77 -43 -113 -25 -27 -100 -62 -132 -62 -55 0 -137 57 -156
108 -34 89 27 217 114 240 51 13 126 -3 160 -35z m-1459 4 c43 -33 64 -71 72
-130 8 -57 -21 -126 -62 -147 -16 -8 -35 -21 -42 -27 -16 -15 -108 -17 -117
-3 -3 5 -14 10 -24 10 -18 0 -71 51 -90 87 -17 34 -13 112 9 158 29 60 79 87
156 82 49 -2 69 -9 98 -30z"/>
<path d="M2285 4170 c-22 -15 -125 -84 -230 -152 -204 -133 -581 -381 -760
-500 l-110 -73 -3 -1043 -2 -1042 37 -26 c73 -50 643 -422 818 -534 72 -45
149 -96 172 -111 23 -16 44 -29 48 -29 3 0 21 -12 40 -26 l34 -25 133 86 c73
48 241 156 373 241 431 278 459 296 558 362 l97 65 0 1036 0 1036 -272 181
c-562 372 -837 553 -873 571 -16 9 -28 6 -60 -17z m180 -228 c66 -42 142 -92
169 -111 l49 -34 -6 -130 c-4 -71 -8 -132 -11 -134 -2 -3 -26 16 -53 41 -26
25 -77 60 -112 78 -61 31 -72 33 -166 33 -93 0 -105 -2 -167 -33 -38 -19 -88
-54 -116 -83 l-49 -50 -7 62 c-3 34 -6 99 -6 144 l0 83 112 74 c62 40 133 87
158 104 25 18 54 32 65 33 11 1 74 -34 140 -77z m-635 -266 c0 -37 -38 -188
-50 -200 -12 -12 -277 -19 -284 -7 -6 8 305 227 327 230 4 1 7 -10 7 -23z
m1174 -84 c88 -60 161 -113 164 -120 3 -9 -33 -12 -142 -12 l-146 0 -6 28 c-3
15 -12 52 -19 82 -21 87 -27 130 -18 129 4 0 80 -48 167 -107z m-549 -41 c103
-48 154 -129 155 -242 0 -52 -5 -76 -26 -115 -36 -68 -59 -90 -131 -126 -57
-28 -70 -30 -131 -26 -80 6 -128 26 -180 77 -59 57 -77 103 -77 196 0 72 3 85
31 130 75 123 228 168 359 106z m-768 -467 c12 -8 27 -31 33 -51 9 -32 8 -49
-9 -102 -12 -35 -21 -83 -21 -107 0 -33 -5 -46 -19 -54 -23 -12 -81 -14 -81
-2 -2 52 -24 150 -41 173 -12 17 -20 45 -21 70 -1 83 82 121 159 73z m1422 1
c52 -26 61 -98 20 -156 -10 -15 -21 -53 -25 -85 -4 -33 -10 -64 -15 -69 -4 -6
-25 -10 -46 -10 l-38 0 -11 75 c-5 41 -16 86 -23 99 -7 13 -13 44 -14 69 0 37
5 49 27 69 32 27 83 30 125 8z m-508 -32 c-16 -31 -103 -103 -123 -103 -17 0
-7 16 20 32 15 9 44 33 62 52 38 38 57 47 41 19z m-397 -101 c-4 -6 -61 27
-93 54 -56 47 -33 44 32 -4 35 -26 63 -48 61 -50z m-186 -171 c62 -32 72 -72
50 -201 -14 -82 -15 -83 -123 -78 l-70 3 -17 90 c-19 99 -16 128 16 164 40 44
86 51 144 22z m757 5 c19 -8 41 -28 49 -45 20 -39 19 -122 -2 -186 l-17 -50
-85 0 -84 0 -19 98 c-22 113 -15 146 37 178 37 23 75 24 121 5z m-1291 -43
l30 -37 -17 -60 c-9 -34 -42 -160 -72 -281 -31 -121 -67 -258 -80 -305 -14
-47 -34 -128 -46 -180 -12 -52 -26 -99 -31 -105 -6 -6 -7 86 -4 240 5 281 0
258 114 585 63 180 63 180 71 180 3 0 19 -17 35 -37z m1839 -220 c48 -142 88
-271 88 -288 1 -16 1 -127 0 -245 l-2 -215 -34 130 c-18 72 -65 252 -103 400
-39 149 -79 301 -91 339 l-20 68 32 33 c18 18 35 33 38 34 3 0 45 -115 92
-256z m-758 40 l0 -58 -220 0 -220 0 -3 54 c-2 30 1 57 6 60 6 3 106 5 224 4
l213 -3 0 -57z m477 57 l86 0 16 -47 c26 -77 32 -73 -124 -73 l-140 0 0 59 c0
63 9 74 55 65 11 -2 59 -4 107 -4z m-1234 -64 l3 -59 -92 6 c-51 4 -114 7
-141 7 -54 0 -56 5 -36 72 l11 39 126 -3 126 -3 3 -59z m1406 -207 c4 -4 9
-29 13 -58 l6 -51 -892 0 -891 1 0 23 c0 46 13 85 29 89 25 7 1729 3 1735 -4z
m-1118 -183 c31 -31 34 -40 34 -90 0 -96 -50 -156 -128 -156 -53 0 -87 28
-101 84 -31 125 11 195 118 196 36 0 49 -6 77 -34z m640 3 c53 -49 51 -157 -4
-212 -43 -42 -116 -50 -153 -15 -44 41 -62 158 -32 205 37 56 140 68 189 22z
m-884 -196 c14 -80 37 -73 -238 -73 l-245 0 4 33 c2 17 8 43 14 57 l11 26 223
-2 224 -2 7 -39z m644 -13 c7 -30 13 -56 14 -57 0 -2 -79 -3 -176 -3 l-176 0
6 30 c3 17 9 44 12 60 l6 30 151 -3 151 -3 12 -54z m801 20 c7 -19 12 -45 12
-57 l1 -23 -253 0 -254 0 10 59 9 59 232 -2 231 -1 12 -35z m-1191 -147 c-11
-83 -28 -142 -43 -155 -9 -7 -33 -14 -54 -14 -33 -2 -40 2 -52 30 -14 31 -41
155 -35 161 2 2 24 -1 49 -7 37 -9 55 -7 90 5 24 8 46 16 47 16 2 1 1 -16 -2
-36z m635 -25 c-6 -24 -14 -52 -16 -62 -18 -78 -24 -86 -71 -86 -51 0 -69 20
-79 86 -3 22 -10 56 -15 74 -5 19 -8 35 -7 37 2 1 28 -2 58 -8 44 -10 60 -9
89 3 46 20 56 9 41 -44z m-1088 -137 c71 -27 90 -109 38 -162 -58 -57 -162
-30 -177 47 -15 83 59 145 139 115z m1457 -8 c39 -26 49 -45 50 -85 0 -76 -89
-126 -158 -89 -30 16 -55 75 -47 111 14 66 100 101 155 63z m-717 -37 c46 -19
69 -49 74 -98 8 -66 -17 -114 -69 -138 -74 -34 -133 -22 -167 34 -77 127 28
259 162 202z m-663 -197 c0 -25 -75 -219 -84 -219 -6 0 -57 31 -113 68 -56 37
-129 84 -162 105 -34 20 -61 42 -61 47 0 6 77 10 210 10 145 0 210 -3 210 -11z
m1624 2 c5 -8 -300 -211 -317 -211 -9 0 -33 48 -61 122 -13 35 -27 71 -31 81
-7 16 6 17 198 17 114 0 208 -4 211 -9z m-1189 -13 c3 -7 6 -24 7 -38 2 -19
-2 -25 -17 -25 -30 0 -35 -13 -35 -97 l0 -77 -122 -3 -123 -3 -5 -57 -5 -58
-57 38 c-32 20 -58 43 -58 51 0 8 17 74 37 148 l38 133 168 0 c125 0 169 -3
172 -12z m727 -113 c38 -121 46 -165 29 -165 -5 0 -33 -16 -61 -35 -29 -20
-54 -34 -56 -33 -1 2 -7 26 -11 53 -5 28 -14 51 -21 51 -6 1 -57 2 -112 3
l-100 1 0 88 0 88 -36 0 -35 0 1 -45 c1 -26 1 -65 1 -88 l-1 -43 -150 0 -150
0 0 85 0 84 33 -19 c17 -10 54 -24 81 -30 43 -9 53 -8 100 13 62 29 106 69
106 97 0 20 4 20 172 18 l172 -3 38 -120z m-185 -290 c1 -5 -18 -23 -45 -38
-26 -15 -85 -52 -132 -82 -47 -30 -113 -71 -147 -90 l-62 -36 -88 57 c-241
157 -283 186 -277 195 8 13 746 7 751 -6z"/>
<path d="M631 3237 c-32 -39 -111 -265 -111 -317 0 -34 23 -50 74 -50 38 0 29
-17 96 180 54 162 55 167 41 184 -16 20 -84 21 -100 3z"/>
<path d="M3070 249 c0 -5 5 -7 10 -4 6 3 10 8 10 11 0 2 -4 4 -10 4 -5 0 -10
-5 -10 -11z"/>
<path d="M1665 340 c-3 -5 -1 -10 4 -10 6 0 11 5 11 10 0 6 -2 10 -4 10 -3 0
-8 -4 -11 -10z"/>
<path d="M1611 314 c0 -11 3 -14 6 -6 3 7 2 16 -1 19 -3 4 -6 -2 -5 -13z"/>
<path d="M1575 300 c4 -6 11 -8 16 -5 14 9 11 15 -7 15 -8 0 -12 -5 -9 -10z"/>
<path d="M1710 300 c0 -5 5 -10 11 -10 5 0 7 5 4 10 -3 6 -8 10 -11 10 -2 0
-4 -4 -4 -10z"/>
<path d="M1655 290 c-3 -5 -1 -10 4 -10 6 0 11 5 11 10 0 6 -2 10 -4 10 -3 0
-8 -4 -11 -10z"/>
</g>
</svg>
